HIERARCHY
ROOT SpineBase
{
  OFFSET 0.000000 0.000000 0.000000
  CHANNELS 6 Xposition Yposition Zposition Zrotation Xrotation Yrotation
  JOINT SpineMid
  {
    OFFSET 0.000000 28.980094 0.000000
    CHANNELS 3 Zrotation Xrotation Yrotation
    JOINT SpineShoulder
    {
      OFFSET -0.204662 21.586269 -0.748470
      CHANNELS 3 Zrotation Xrotation Yrotation
      JOINT Neck
      {
        OFFSET -0.108038 7.169048 -0.565308
        CHANNELS 3 Zrotation Xrotation Yrotation
        JOINT Head
        {
          OFFSET 7.885880 8.189262 6.062935
          CHANNELS 3 Zrotation Xrotation Yrotation
          End Site
          {
            OFFSET 0 0 0
          }
        }
      }
      JOINT ShoulderLeft
      {
        OFFSET -11.501686 11.477991 -0.027798
        CHANNELS 3 Zrotation Xrotation Yrotation
        JOINT ElbowLeft
        {
          OFFSET -16.684911 13.782920 -2.501360
          CHANNELS 3 Zrotation Xrotation Yrotation
          JOINT WristLeft
          {
            OFFSET 28.438168 6.636742 -7.230942
            CHANNELS 3 Zrotation Xrotation Yrotation
            JOINT HandLeft
            {
              OFFSET 2.388961 -1.943431 0.920871
              CHANNELS 3 Zrotation Xrotation Yrotation
              JOINT HandTipLeft
              {
                OFFSET 3.446857 -1.552514 3.552882
                CHANNELS 3 Zrotation Xrotation Yrotation
                End Site
                {
                  OFFSET 0 0 0
                }
              }
              JOINT ThumbLeft
              {
                OFFSET -1.345003 -2.155401 2.417781
                CHANNELS 3 Zrotation Xrotation Yrotation
                End Site
                {
                  OFFSET 0 0 0
                }
              }
            }
          }
        }
      }
      JOINT ShoulderRight
      {
        OFFSET 6.620660 -3.028087 -12.505779
        CHANNELS 3 Zrotation Xrotation Yrotation
        JOINT ElbowRight
        {
          OFFSET 4.114136 -22.409836 -7.926213
          CHANNELS 3 Zrotation Xrotation Yrotation
          JOINT WristRight
          {
            OFFSET -7.891485 -23.501247 -1.891194
            CHANNELS 3 Zrotation Xrotation Yrotation
            JOINT HandRight
            {
              OFFSET -2.151399 -10.230347 0.917999
              CHANNELS 3 Zrotation Xrotation Yrotation
              JOINT HandTipRight
              {
                OFFSET -3.752301 -5.222318 -1.495275
                CHANNELS 3 Zrotation Xrotation Yrotation
                End Site
                {
                  OFFSET 0 0 0
                }
              }
              JOINT ThumbRight
              {
                OFFSET 4.946502 -1.702073 3.792692
                CHANNELS 3 Zrotation Xrotation Yrotation
                End Site
                {
                  OFFSET 0 0 0
                }
              }
            }
          }
        }
      }
    }
  }
  JOINT HipLeft
  {
    OFFSET -5.051623 1.286024 2.681721
    CHANNELS 3 Zrotation Xrotation Yrotation
    JOINT KneeLeft
    {
      OFFSET 15.669759 -19.322895 -15.475412
      CHANNELS 3 Zrotation Xrotation Yrotation
      JOINT AnkleLeft
      {
        OFFSET 1.741403 -38.680446 4.257427
        CHANNELS 3 Zrotation Xrotation Yrotation
        JOINT FootLeft
        {
          OFFSET -5.248054 -3.407306 -11.604837
          CHANNELS 3 Zrotation Xrotation Yrotation
          End Site
          {
            OFFSET 0 0 0
          }
        }
      }
    }
  }
  JOINT HipRight
  {
    OFFSET 4.560506 1.122168 -9.541644
    CHANNELS 3 Zrotation Xrotation Yrotation
    JOINT KneeRight
    {
      OFFSET -0.103621 -35.300054 -0.918392
      CHANNELS 3 Zrotation Xrotation Yrotation
      JOINT AnkleRight
      {
        OFFSET 9.389109 -34.633384 3.686006
        CHANNELS 3 Zrotation Xrotation Yrotation
        JOINT FootRight
        {
          OFFSET -5.256168 -3.324582 -11.558510
          CHANNELS 3 Zrotation Xrotation Yrotation
          End Site
          {
            OFFSET 0 0 0
          }
        }
      }
    }
  }
}
MOTION
Frames: 9
Frame Time: 0.033333
13.225979 95.497695 318.516737 5.749478 -2.820878 45.609704 -0.198738 0.108128 -45.294980 -0.129774 0.068041 0.218343 54.260128 -29.447511 -8.913862 0.000000 0.000000 0.000000 -79.091064 7.260824 -33.863226 -35.561190 -14.111062 -4.564993 9.586152 1.875068 99.907120 32.646235 -7.924802 3.982945 0.000000 0.000000 0.000000 0.000000 0.000000 0.000000 5.060290 -3.017257 -5.025069 2.087600 5.618713 3.084777 -10.363482 9.315266 -0.931607 26.912914 -16.457624 6.626433 0.000000 0.000000 0.000000 0.000000 0.000000 0.000000 -33.408412 4.218273 -44.900500 43.585793 26.762516 -9.096405 -18.324168 -12.963060 5.387828 0.000000 0.000000 0.000000 1.084213 2.512198 -45.715294 -1.383906 -4.918112 -0.778899 -2.049471 -3.405677 14.191626 0.000000 0.000000 0.000000
12.251567 93.311256 317.281105 6.725196 -4.082336 41.210815 -0.149737 0.254953 -40.780917 0.070791 0.021722 0.263185 49.423813 -26.938220 -11.124492 0.000000 0.000000 0.000000 -80.609586 7.597113 -34.037997 -34.760867 -14.223313 -3.385362 13.109577 7.529093 97.980752 27.084314 -5.085513 5.962393 0.000000 0.000000 0.000000 0.000000 0.000000 0.000000 6.124030 -5.040838 -6.311812 2.998846 7.244406 4.258903 -11.255309 9.173190 -0.643234 26.728419 -18.013069 8.560717 0.000000 0.000000 0.000000 0.000000 0.000000 0.000000 -50.215815 1.060896 -40.130969 72.019952 33.927427 -25.427908 -26.185015 -19.042184 4.359971 0.000000 0.000000 0.000000 0.212418 3.421010 -41.178871 0.322730 -4.062820 -0.645564 -4.124182 -2.052569 12.988847 0.000000 0.000000 0.000000
10.606509 93.186906 316.162901 7.468911 -5.321793 29.640946 -0.190432 0.411131 -29.095429 0.162648 0.092351 0.284457 43.487189 -22.544442 -15.740416 0.000000 0.000000 0.000000 -79.503348 7.146474 -33.041049 -36.675975 -13.964541 -3.931358 14.886977 12.548036 87.395925 22.375015 0.570921 14.952338 0.000000 0.000000 0.000000 0.000000 0.000000 0.000000 4.181044 -6.629860 -6.338446 9.332259 6.354382 4.561065 -13.833495 10.178521 -0.458254 27.088987 -18.464380 9.651889 0.000000 0.000000 0.000000 0.000000 0.000000 0.000000 -57.804525 -9.084864 -32.943511 89.684592 31.868132 -35.742385 -31.486748 -24.669531 3.235619 0.000000 0.000000 0.000000 -0.418350 4.743483 -29.526366 3.089853 -4.199635 -0.305061 -13.699822 6.899954 17.108624 0.000000 0.000000 0.000000
10.011018 88.682281 315.196564 7.501386 -6.172384 10.413025 -0.383115 0.422724 -9.816997 0.220361 0.083111 0.278411 38.981036 -17.617344 -20.576301 0.000000 0.000000 0.000000 -76.324219 6.557315 -28.995208 -40.907548 -13.110026 -7.421008 24.247673 23.185350 78.265250 14.093027 10.055058 11.229853 0.000000 0.000000 0.000000 0.000000 0.000000 0.000000 3.359566 -4.990317 -6.042584 13.310962 5.338512 3.722691 -13.936935 7.179893 0.714239 27.262047 -18.576679 10.263895 0.000000 0.000000 0.000000 0.000000 0.000000 0.000000 -63.612622 -29.116774 -30.082905 110.283576 32.931341 -50.505447 -40.667031 -26.621680 2.159640 0.000000 0.000000 0.000000 -1.542819 5.551839 -10.265247 5.420783 -4.685202 0.076953 -19.848973 11.667119 18.751632 0.000000 0.000000 0.000000
10.235509 80.352590 314.138076 7.473836 -6.308702 13.923454 -0.401497 0.502893 -13.322658 0.228663 0.090394 0.273868 35.475898 -13.105640 -24.482110 0.000000 0.000000 0.000000 -71.443604 5.271584 -27.896765 -46.387075 -13.575750 -9.225440 30.019976 28.342264 78.667881 13.734493 12.427408 -1.571512 0.000000 0.000000 0.000000 0.000000 0.000000 0.000000 2.395312 -0.457686 -5.127580 16.692713 8.276677 -1.022176 -14.496245 -3.522352 4.336897 32.373706 -18.744176 10.405274 0.000000 0.000000 0.000000 0.000000 0.000000 0.000000 -72.940463 -28.275715 -38.567726 124.994936 29.673226 -61.234195 -48.414642 -23.362116 -0.433588 0.000000 0.000000 0.000000 -4.894075 1.598973 -13.228913 10.947225 0.680263 -0.588797 -25.784202 15.678265 19.136949 0.000000 0.000000 0.000000
10.673814 65.536392 313.934384 6.319164 -6.028353 8.724141 -0.523096 0.478277 -8.235377 0.174043 0.078732 0.221906 34.599672 -9.561715 -27.942653 0.000000 0.000000 0.000000 -64.405422 3.541839 -27.432424 -55.728901 -12.277491 -12.944707 33.649436 30.076180 89.841176 12.877477 9.319569 -6.540818 0.000000 0.000000 0.000000 0.000000 0.000000 0.000000 2.313969 11.034483 -3.054132 17.806782 2.109511 -2.629221 -7.139219 -11.569661 8.680160 31.166497 -19.019642 10.393911 0.000000 0.000000 0.000000 0.000000 0.000000 0.000000 -77.912549 -34.677030 -52.640857 135.930252 32.861810 -74.327073 -58.170021 0.358536 -3.036883 0.000000 0.000000 0.000000 -8.072808 -6.835102 -8.005356 17.191976 9.200169 -2.911771 -30.455908 17.956658 18.669205 0.000000 0.000000 0.000000
8.441626 55.971397 312.133033 3.979681 -4.978053 4.311577 -0.652133 0.344436 -4.047729 0.072356 -0.028910 0.122011 36.171948 -7.479000 -30.556963 0.000000 0.000000 0.000000 -56.090865 1.374930 -27.582838 -55.888560 -10.102204 -12.275554 31.099789 29.984929 90.246164 16.122113 7.762599 -22.141753 0.000000 0.000000 0.000000 0.000000 0.000000 0.000000 -4.399695 47.295460 7.903722 21.523362 -31.652535 1.199544 -0.692872 -14.958580 10.995373 29.127241 -20.427841 13.276517 0.000000 0.000000 0.000000 0.000000 0.000000 0.000000 -68.592330 -39.404118 -60.942990 133.069937 42.976528 -77.219024 -63.908975 15.233528 0.529064 0.000000 0.000000 0.000000 -23.755018 -48.490017 -11.850424 40.572288 45.730854 -26.593095 -30.463675 18.154592 17.339701 0.000000 0.000000 0.000000
7.000696 41.756901 315.800760 2.136363 -8.205996 6.190820 -0.688492 0.374349 -6.015489 -0.112537 0.102787 0.016781 38.005228 -3.354863 -35.063283 0.000000 0.000000 0.000000 -48.938606 1.841269 -24.752760 -53.009270 -4.939435 -11.789233 21.310136 22.013644 96.333598 18.567600 -3.402312 -15.086719 0.000000 0.000000 0.000000 0.000000 0.000000 0.000000 -127.240642 62.443821 133.981984 101.452149 -81.432760 75.283096 14.092626 -11.175515 12.233371 19.531542 -21.310291 13.067069 0.000000 0.000000 0.000000 0.000000 0.000000 0.000000 -67.659804 -37.238663 -75.067225 146.040126 48.306933 -94.762443 -68.484926 34.097747 -5.204855 0.000000 0.000000 0.000000 -175.189914 -15.693942 -77.960148 170.895257 -12.022688 -83.815564 -29.118061 17.018474 14.495838 0.000000 0.000000 0.000000
7.108599 33.471224 309.629316 -0.125998 -0.883385 1.883311 -0.599275 -0.124945 -1.915242 -0.227068 -0.263162 -0.059554 41.512586 -7.080895 -34.642266 0.000000 0.000000 0.000000 -42.849053 -3.867956 -29.152973 -26.316576 15.419893 -13.683289 -8.010815 -8.201568 111.015166 34.664754 -45.081328 18.890134 0.000000 0.000000 0.000000 0.000000 0.000000 0.000000 -134.925773 47.279494 142.136543 -162.622434 -68.232718 165.973617 32.227073 -4.158130 10.355171 8.330851 -21.640606 10.878897 0.000000 0.000000 0.000000 0.000000 0.000000 0.000000 -74.526641 -43.636640 -102.178248 164.618607 52.411085 -119.030077 -74.785085 52.725221 -4.202621 0.000000 0.000000 0.000000 -176.753685 -13.239116 -143.101931 161.349343 3.929962 -141.829758 -21.846989 7.790901 10.112020 0.000000 0.000000 0.000000
